<?xml version="1.0" encoding="UTF-8"?>
<svg version="1.1" xmlns="http://www.w3.org/2000/svg" width="235" height="236">
<path d="M0 0 C77.55 0 155.1 0 235 0 C235 77.88 235 155.76 235 236 C157.45 236 79.9 236 0 236 C0 158.12 0 80.24 0 0 Z " fill="#9852BE" transform="translate(0,0)"/>
<path d="M0 0 C6.13787849 3.65039411 10.61450872 8.77763676 14.74853516 14.53125 C15.16151855 15.0159375 15.57450195 15.500625 16 16 C16.66 16 17.32 16 18 16 C18.33 10.72 18.66 5.44 19 0 C41.33885728 -2.83378679 41.33885728 -2.83378679 47.40917969 1.86474609 C51.69069033 6.9565279 54.56603524 12.83832593 57 19 C61.1358702 17.6213766 62.09298738 14.82324222 64.0625 11.1875 C64.41376953 10.55779297 64.76503906 9.92808594 65.12695312 9.27929688 C66.82585365 6.2187067 68.4342608 3.13147841 70 0 C78.58 0 87.16 0 96 0 C96 34.98 96 69.96 96 106 C87.42 106 78.84 106 70 106 C70 89.17 70 72.34 70 55 C69.34 55 68.68 55 68 55 C67.731875 55.9075 67.46375 56.815 67.1875 57.75 C66.05531956 60.84859909 65.29077017 62.66904088 63 65 C60.30078125 65.390625 60.30078125 65.390625 57.3125 65.25 C56.31863281 65.21390625 55.32476562 65.1778125 54.30078125 65.140625 C53.54152344 65.09421875 52.78226562 65.0478125 52 65 C50.35 62.03 48.7 59.06 47 56 C46.67 72.83 46.34 89.66 46 107 C37.09 107 28.18 107 19 107 C19 100.73 19 94.46 19 88 C17.35 89.65 15.7 91.3 14 93 C12.65746381 94.18003181 11.30415551 95.3479882 9.9375 96.5 C6.90854263 99.11254703 4.43556148 101.81503499 2 105 C-6.31832809 109.15916404 -20.20307674 107.85216882 -29 106 C-37.01191975 102.37570884 -43.31023078 95.97578073 -47 88 C-48.77751257 80.61703869 -48.12563368 73.43474094 -47 66 C-38.585 65.505 -38.585 65.505 -30 65 C-31.2271875 64.10925781 -32.454375 63.21851563 -33.71875 62.30078125 C-41.13245602 56.35647238 -46.95251957 50.69396054 -48.796875 41.08203125 C-49.94433209 29.63622248 -48.7578078 19.46989276 -41.58813477 10.1940918 C-30.58489477 -1.60190538 -15.40169525 -5.13546962 0 0 Z " fill="#762D87" transform="translate(91,60)"/>
<path d="M0 0 C7.25371833 3.87868011 13.18598589 9.68833484 17 17 C18.67396782 22.71899822 17.91389278 27.03281776 17 33 C10.73 33 4.46 33 -2 33 C-2.495 29.04 -2.495 29.04 -3 25 C-4.26938424 22.31379818 -4.26938424 22.31379818 -7 21 C-11.5591971 20.27174223 -15.4909491 20.20954477 -19.625 22.375 C-21.72937372 26.39244074 -21.96438383 30.57518005 -21 35 C-19.59345582 37.4905663 -19.59345582 37.4905663 -17 39 C-15.03555969 39.00617102 -13.06699225 38.9954012 -11.10888672 38.83764648 C-3.31471739 38.32803409 2.21168439 39.92696853 8.34545898 44.8215332 C15.20388021 51.1878111 18.97937764 57.23037471 20.02539062 66.63549805 C20.33347729 77.04172909 18.29628741 85.37394223 11.125 93.125 C3.37311357 100.29705409 -4.95594947 102.32907901 -15.36230469 102.02758789 C-24.79421236 100.98291457 -30.85789743 97.15962205 -37.23999023 90.28393555 C-41.49024964 84.95147231 -43.37406777 80.27853238 -43.0625 73.4375 C-42.711875 70.983125 -42.36125 68.52875 -42 66 C-35.4 66 -28.8 66 -22 66 C-21.67 68.97 -21.34 71.94 -21 75 C-19.68620182 77.73061576 -19.68620182 77.73061576 -17 79 C-13.89697148 79.54188917 -11.09789695 79.5933357 -8 79 C-5.55901182 77.14579161 -5.55901182 77.14579161 -4 75 C-3.34 75 -2.68 75 -2 75 C-2 71.7 -2 68.4 -2 65 C-3.32 64.34 -4.64 63.68 -6 63 C-6.66 62.34 -7.32 61.68 -8 61 C-9.78735492 61.09894662 -11.57462606 61.20312454 -13.35961914 61.33813477 C-20.97280988 61.68154257 -26.30295922 59.94931255 -32.27954102 55.17407227 C-39.1622788 48.80803665 -42.98409602 42.79465678 -44.02734375 33.36450195 C-44.3305976 22.91664853 -42.28311589 14.63560118 -35.0625 6.875 C-25.28630014 -2.13859272 -12.55162222 -4.24204998 0 0 Z " fill="#76308A" transform="translate(89,63)"/>
<path d="M0 0 C6.13787849 3.65039411 10.61450872 8.77763676 14.74853516 14.53125 C15.16151855 15.0159375 15.57450195 15.500625 16 16 C16.66 16 17.32 16 18 16 C18.33 10.72 18.66 5.44 19 0 C41.33885728 -2.83378679 41.33885728 -2.83378679 47.40917969 1.86474609 C51.69069033 6.9565279 54.56603524 12.83832593 57 19 C61.1358702 17.6213766 62.09298738 14.82324222 64.0625 11.1875 C64.41376953 10.55779297 64.76503906 9.92808594 65.12695312 9.27929688 C66.82585365 6.2187067 68.4342608 3.13147841 70 0 C78.58 0 87.16 0 96 0 C96 34.98 96 69.96 96 106 C87.42 106 78.84 106 70 106 C70 89.17 70 72.34 70 55 C69.34 55 68.68 55 68 55 C67.731875 55.9075 67.46375 56.815 67.1875 57.75 C66.05531956 60.84859909 65.29077017 62.66904088 63 65 C60.30078125 65.390625 60.30078125 65.390625 57.3125 65.25 C56.31863281 65.21390625 55.32476562 65.1778125 54.30078125 65.140625 C53.54152344 65.09421875 52.78226562 65.0478125 52 65 C50.35 62.03 48.7 59.06 47 56 C46.67 72.83 46.34 89.66 46 107 C37.09 107 28.18 107 19 107 C19 100.73 19 94.46 19 88 C17.35 89.65 15.7 91.3 14 93 C12.65746381 94.18003181 11.30415551 95.3479882 9.9375 96.5 C6.90854263 99.11254703 4.43556148 101.81503499 2 105 C-6.31832809 109.15916404 -20.20307674 107.85216882 -29 106 C-37.01191975 102.37570884 -43.31023078 95.97578073 -47 88 C-48.77751257 80.61703869 -48.12563368 73.43474094 -47 66 C-38.585 65.505 -38.585 65.505 -30 65 C-31.2271875 64.10925781 -32.454375 63.21851563 -33.71875 62.30078125 C-41.13245602 56.35647238 -46.95251957 50.69396054 -48.796875 41.08203125 C-49.94433209 29.63622248 -48.7578078 19.46989276 -41.58813477 10.1940918 C-30.58489477 -1.60190538 -15.40169525 -5.13546962 0 0 Z M-42.65966797 17.17480469 C-46.96320866 26.24594728 -47.09080719 36.52623271 -44 46 C-40.17117444 53.3204498 -34.33565935 59.17904026 -27 63 C-22.44682241 64.36945998 -18.20889496 64.39232114 -13.51171875 63.98828125 C-10 64 -10 64 -7.64453125 65.98046875 C-6.83048828 66.98013672 -6.83048828 66.98013672 -6 68 C-5.34 68 -4.68 68 -4 68 C-4 71.3 -4 74.6 -4 78 C-5.98 78.99 -5.98 78.99 -8 80 C-8.66 80.66 -9.32 81.32 -10 82 C-14.15277128 82.68945624 -17.82366617 82.67639195 -21.5 80.5625 C-23 78 -23 78 -24 69 C-30.6 69 -37.2 69 -44 69 C-45.22124413 77.54870891 -46.02145964 83.55092434 -41.12890625 90.9140625 C-35.56355198 97.89647092 -29.56808256 102.85968648 -20.6796875 104.66015625 C-10.478975 105.789982 -1.40504648 104.53271412 6.87939453 98.20263672 C13.61515434 91.97070413 16.95754096 85.49299898 18.00585938 76.36254883 C18.33937173 66.94970944 16.86269876 59.54442081 10.79321289 52.17651367 C5.10130478 46.29874211 -0.12363605 42.35034649 -8.43798828 41.69946289 C-10.73723967 41.68787916 -12.97873741 41.82716101 -15.26953125 42.01171875 C-19 42 -19 42 -21.48046875 40.33203125 C-24.06846504 36.36022204 -23.71296397 32.5660033 -23 28 C-21.625 25.375 -21.625 25.375 -19 24 C-14.42022895 23.28488625 -10.49941215 23.12229533 -6.4375 25.5 C-5 28 -5 28 -4 36 C2.27 36 8.54 36 15 36 C16.26869569 27.71616346 16.89735742 22.24195363 12.09375 15.15234375 C5.71462218 7.22770233 -1.00491402 2.15110766 -11.27978516 0.97021484 C-24.90301751 0.56740509 -35.35606537 5.45146292 -42.65966797 17.17480469 Z M23 3 C23 36 23 69 23 103 C29.6 103 36.2 103 43 103 C43.33 83.53 43.66 64.06 44 44 C47.3 49.61 50.6 55.22 54 61 C56.64 61 59.28 61 62 61 C65.3 55.39 68.6 49.78 72 44 C72.33 63.47 72.66 82.94 73 103 C79.6 103 86.2 103 93 103 C93 70 93 37 93 3 C86.4 3 79.8 3 73 3 C67.68135631 9.70303506 67.68135631 9.70303506 63.9453125 16.92236328 C62.50935923 20.07834529 60.7580844 23.0136111 59 26 C58.34 26 57.68 26 57 26 C55.47100083 23.69298357 54.06309816 21.39649662 52.6875 19 C49.54097036 13.60748072 46.31149796 8.29839674 43 3 C36.4 3 29.8 3 23 3 Z " fill="#080309" transform="translate(91,60)"/>
<path d="M0 0 C0.33 0 0.66 0 1 0 C1.02505615 1.21582764 1.0501123 2.43165527 1.07592773 3.68432617 C1.17024189 8.20379817 1.27040369 12.72312508 1.37231445 17.24243164 C1.41557258 19.19682415 1.45725398 21.15125222 1.49731445 23.10571289 C1.55523836 25.91824045 1.61886873 28.73059048 1.68359375 31.54296875 C1.70030624 32.41398727 1.71701874 33.2850058 1.73423767 34.18241882 C1.83338575 38.2610067 2.13384034 42.00293936 3 46 C3.08902628 47.84082823 3.13060364 49.68436536 3.1328125 51.52734375 C3.13410156 52.56697266 3.13539063 53.60660156 3.13671875 54.67773438 C3.13285156 55.75345703 3.12898438 56.82917969 3.125 57.9375 C3.12886719 59.00935547 3.13273437 60.08121094 3.13671875 61.18554688 C3.1304224 66.26984721 2.87807713 70.98735497 2 76 C1.87991397 79.12616817 1.90507405 82.24714279 1.9375 85.375 C1.94201172 86.20644531 1.94652344 87.03789062 1.95117188 87.89453125 C1.96286836 89.92971897 1.98080065 91.96486923 2 94 C2.33 93.34 2.66 92.68 3 92 C3.66 92 4.32 92 5 92 C5.3403125 91.0409375 5.3403125 91.0409375 5.6875 90.0625 C10.54545455 78.72727273 10.54545455 78.72727273 14 77 C10.97093592 92.75113321 3.12053149 109.1941291 -10 119 C-8.53447054 115.1670768 -6.85375622 111.70751245 -5 108 C-15.89 107.505 -15.89 107.505 -27 107 C-27 101.06 -27 95.12 -27 89 C-29.31 89 -31.62 89 -34 89 C-33.95101562 89.98742187 -33.90203125 90.97484375 -33.8515625 91.9921875 C-33.85374682 96.33243551 -35.00082373 100.04107165 -36.375 104.125 C-36.59671875 104.81464844 -36.8184375 105.50429687 -37.046875 106.21484375 C-37.6760476 108.15047476 -38.33712388 110.07565055 -39 112 C-39.32226562 112.96679688 -39.64453125 113.93359375 -39.9765625 114.9296875 C-40.31429687 115.61289063 -40.65203125 116.29609375 -41 117 C-42.485 117.495 -42.485 117.495 -44 118 C-45.66710346 119.49985609 -45.66710346 119.49985609 -47 121 C-47.33 120.67 -47.66 120.34 -48 120 C-48.99 120 -49.98 120 -51 120 C-50.01 118.35 -49.02 116.7 -48 115 C-48.99 115.66 -49.98 116.32 -51 117 C-51.99 117 -52.98 117 -54 117 C-55.55076166 118.63080944 -55.55076166 118.63080944 -56.9375 120.75 C-62.4326317 128.39716604 -62.4326317 128.39716604 -66.4375 129.9375 C-71.11959372 130.05169741 -73.56434926 127.37211834 -77 124.4375 C-80.76151463 120.58828166 -82.82719013 115.8647867 -85 111 C-88.24983135 112.08784968 -88.24983135 112.08784968 -91 114 C-91.66 114.66 -92.32 115.32 -93 116 C-92.67889311 119.53217579 -92.12183498 122.63449506 -91 126 C-101.6439708 123.06905152 -110.75144903 117.29029106 -119 110 C-119.33 109.34 -119.66 108.68 -120 108 C-121.32 107.34 -122.64 106.68 -124 106 C-109.15 105.505 -109.15 105.505 -94 105 C-93.505 103.515 -93.505 103.515 -93 102 C-92.34 102 -91.68 102 -91 102 C-90.62875 101.12021484 -90.62875 101.12021484 -90.25 100.22265625 C-88.81617504 97.67313625 -87.25307196 96.28882935 -85 94.4375 C-82.44227537 92.32643684 -80.866865 90.80029749 -79 88 C-78.34 88 -77.68 88 -77 88 C-77 94.27 -77 100.54 -77 107 C-68.09 107 -59.18 107 -50 107 C-50 89.84 -50 72.68 -50 55 C-44 61 -44 61 -44 65 C-40.16558228 65.16788169 -36.69678995 65.09034535 -33 64 C-30.57758727 61.27991791 -29.24456112 58.403634 -28 55 C-27.34 55 -26.68 55 -26 55 C-26 71.83 -26 88.66 -26 106 C-17.42 106 -8.84 106 0 106 C0 71.02 0 36.04 0 0 Z " fill="#7E4096" transform="translate(187,60)"/>
<path d="M0 0 C0.66 0.33 1.32 0.66 2 1 C2 2.98 2 4.96 2 7 C2.66 7 3.32 7 4 7 C3.8462793 7.57097412 3.69255859 8.14194824 3.53417969 8.73022461 C1.75595746 16.28604365 1.46284647 24.61578445 4 32 C9.65035183 40.64684161 18.30655672 49.24051592 28 53 C29.66666667 54.66666667 31.33333333 56.33333333 33 58 C39.51368079 63.1660227 46.33146191 66.83636356 54 70 C53.83886719 69.39285156 53.67773438 68.78570312 53.51171875 68.16015625 C52.91965762 65.66084475 52.80297419 63.56133552 53 61 C53.66 60.01 54.32 59.02 55 58 C55.33 57.01 55.66 56.02 56 55 C56.66 55.66 57.32 56.32 58 57 C59.32 56.34 60.64 55.68 62 55 C62.65355469 56.19496094 62.65355469 56.19496094 63.3203125 57.4140625 C68.63789074 67.49924608 68.63789074 67.49924608 77.5625 74.0625 C81.6112611 73.95868561 83.82966733 72.22826993 86.578125 69.34375 C88.92467788 66.65546612 91.01789071 63.97316393 93 61 C94.32303717 60.6278958 95.65737935 60.29369827 97 60 C97.99 59.01 97.99 59.01 99 58 C99.33 58.99 99.66 59.98 100 61 C99.34 61.99 98.68 62.98 98 64 C99.485 64.495 99.485 64.495 101 65 C102.32 63.68 103.64 62.36 105 61 C104.125 67.75 104.125 67.75 103 70 C111.67281684 66.97109868 119.58616011 62.80434152 126.57421875 56.78125 C129 55 129 55 133 55 C135 62.625 135 62.625 135 66 C124.12015747 79.34639068 103.36908719 86.04578036 87 88 C63.47653447 89.80819742 41.70449435 82.3728838 23.6875 67.25 C9.79262204 55.09150423 -2.65958228 35.76098255 -4.17041016 16.86914062 C-4.72297535 4.4459507 -4.72297535 4.4459507 -3 1 C-2.01 0.67 -1.02 0.34 0 0 Z " fill="#AB8EC0" transform="translate(40,115)"/>
<path d="M0 0 C8.25 0 16.5 0 25 0 C30.25966202 6.60717873 33.95336278 11.46097115 37 19 C41.1358702 17.6213766 42.09298738 14.82324222 44.0625 11.1875 C44.41376953 10.55779297 44.76503906 9.92808594 45.12695312 9.27929688 C46.82585365 6.2187067 48.4342608 3.13147841 50 0 C58.58 0 67.16 0 76 0 C76 34.98 76 69.96 76 106 C67.42 106 58.84 106 50 106 C50 89.17 50 72.34 50 55 C49.34 55 48.68 55 48 55 C47.731875 55.9075 47.46375 56.815 47.1875 57.75 C46.05531956 60.84859909 45.29077017 62.66904088 43 65 C40.30078125 65.390625 40.30078125 65.390625 37.3125 65.25 C36.31863281 65.21390625 35.32476562 65.1778125 34.30078125 65.140625 C33.54152344 65.09421875 32.78226563 65.0478125 32 65 C29.525 60.545 29.525 60.545 27 56 C26.67 72.5 26.34 89 26 106 C17.42 106 8.84 106 0 106 C0 71.02 0 36.04 0 0 Z M3 3 C3 36 3 69 3 103 C9.6 103 16.2 103 23 103 C23.33 83.53 23.66 64.06 24 44 C27.3 49.61 30.6 55.22 34 61 C36.64 61 39.28 61 42 61 C45.3 55.39 48.6 49.78 52 44 C52.33 63.47 52.66 82.94 53 103 C59.6 103 66.2 103 73 103 C73 70 73 37 73 3 C66.4 3 59.8 3 53 3 C47.68135631 9.70303506 47.68135631 9.70303506 43.9453125 16.92236328 C42.50935923 20.07834529 40.7580844 23.0136111 39 26 C38.34 26 37.68 26 37 26 C35.47100083 23.69298357 34.06309816 21.39649662 32.6875 19 C29.54097036 13.60748072 26.31149796 8.29839674 23 3 C16.4 3 9.8 3 3 3 Z " fill="#040205" transform="translate(111,60)"/>
<path d="M0 0 C-2 1 -2 1 -5 1 C-5.33 1.99 -5.66 2.98 -6 4 C-7.32 4 -8.64 4 -10 4 C-10.495 3.01 -10.495 3.01 -11 2 C-11.33 3.32 -11.66 4.64 -12 6 C-13.175625 6.0928125 -13.175625 6.0928125 -14.375 6.1875 C-15.24125 6.455625 -16.1075 6.72375 -17 7 C-18.24714403 9.40952023 -18.24714403 9.40952023 -19 12 C-19.66 12.66 -20.32 13.32 -21 14 C-21 13.34 -21 12.68 -21 12 C-21.99 12 -22.98 12 -24 12 C-24.495 11.01 -24.495 11.01 -25 10 C-25.5775 9.71125 -26.155 9.4225 -26.75 9.125 C-29 8 -29 8 -31.3125 5.8125 C-33.94336281 3.67383403 -33.94336281 3.67383403 -37.5 4 C-42.50429233 5.42979781 -44.83254141 7.08908519 -47.5703125 11.5703125 C-49.10690215 14.3539894 -50.57476864 17.1578964 -52 20 C-52.38800781 20.7734375 -52.77601562 21.546875 -53.17578125 22.34375 C-53.44777344 22.8903125 -53.71976563 23.436875 -54 24 C-56.49344162 23.6166754 -57.6951868 23.35728239 -59.36157227 21.40405273 C-59.82104248 20.77442627 -60.2805127 20.1447998 -60.75390625 19.49609375 C-64.78890063 15.28009028 -69.01760201 15.18264948 -74.53067017 15.04672241 C-76.66690614 15.0290307 -78.8012915 15.04491308 -80.9375 15.0625 C-82.39912024 15.04937604 -83.86071597 15.03312868 -85.32226562 15.01367188 C-88.88194559 14.97303385 -92.44010632 14.97489228 -96 15 C-72.6839295 -8.57042763 -29.08439044 -20.81268307 0 0 Z M-11 -3 C-10.34 -1.68 -9.68 -0.36 -9 1 C-7.68 0.34 -6.36 -0.32 -5 -1 C-5.61875 -1.144375 -6.2375 -1.28875 -6.875 -1.4375 C-9 -2 -9 -2 -11 -3 Z " fill="#B293C8" transform="translate(156,45)"/>
<path d="M0 0 C2.97 0.495 2.97 0.495 6 1 C5.01 2.485 5.01 2.485 4 4 C2.68 3.34 1.36 2.68 0 2 C0 1.34 0 0.68 0 0 Z M23.328125 9.046875 C26.90205649 11.65939802 29.3400744 14.47739582 32 18 C26.72 18 21.44 18 16 18 C15.67 19.32 15.34 20.64 15 22 C13.72047344 24.67385044 12.19459495 27.19878967 10.6875 29.75 C10.29626953 30.44738281 9.90503906 31.14476563 9.50195312 31.86328125 C8.32421875 33.859375 8.32421875 33.859375 6 37 C4.68 37 3.36 37 2 37 C0.53613281 35.47119141 0.53613281 35.47119141 -0.796875 33.3515625 C-1.28027344 32.59359375 -1.76367188 31.835625 -2.26171875 31.0546875 C-2.99841797 29.85199219 -2.99841797 29.85199219 -3.75 28.625 C-4.25660156 27.8309375 -4.76320312 27.036875 -5.28515625 26.21875 C-9 20.311047 -9 20.311047 -9 18 C-17.58 18 -26.16 18 -35 18 C-35 23.28 -35 28.56 -35 34 C-39 34 -39 34 -40.703125 32.46875 C-41.21359375 31.8190625 -41.7240625 31.169375 -42.25 30.5 C-42.77078125 29.8503125 -43.2915625 29.200625 -43.828125 28.53125 C-44.21484375 28.0259375 -44.6015625 27.520625 -45 27 C-44.34 27 -43.68 27 -43 27 C-42.814375 26.05125 -42.62875 25.1025 -42.4375 24.125 C-40.53953029 17.4343154 -35.86366568 10.75876005 -30 7 C-26.6875 5.9375 -26.6875 5.9375 -23 6 C-20.9493099 7.38116294 -19.30274161 8.88340288 -17.578125 10.65234375 C-15.96564916 12.32469758 -15.96564916 12.32469758 -13 12 C-13 12.99 -13 13.98 -13 15 C-10.55519921 14.81171228 -10.55519921 14.81171228 -8 14 C-6.89163577 12.11683841 -6.89163577 12.11683841 -6 10 C-4.68662604 8.9739266 -3.35335895 7.97272675 -2 7 C-1.34 6.01 -0.68 5.02 0 4 C2 5 2 5 5 7 C5.33 5.68 5.66 4.36 6 3 C12.36084536 0.64413135 18.14316276 5.71168307 23.328125 9.046875 Z " fill="#AA8BC1" transform="translate(145,42)"/>
<path d="M0 0 C0.66 0.33 1.32 0.66 2 1 C2 2.98 2 4.96 2 7 C2.66 7 3.32 7 4 7 C3.8462793 7.57097412 3.69255859 8.14194824 3.53417969 8.73022461 C1.75595746 16.28604365 1.46284647 24.61578445 4 32 C9.65035183 40.64684161 18.30655672 49.24051592 28 53 C29.66666667 54.66666667 31.33333333 56.33333333 33 58 C39.51368079 63.1660227 46.33146191 66.83636356 54 70 C53.83886719 69.39285156 53.67773438 68.78570312 53.51171875 68.16015625 C52.91965762 65.66084475 52.80297419 63.56133552 53 61 C53.66 60.01 54.32 59.02 55 58 C55.33 57.01 55.66 56.02 56 55 C56.66 55.66 57.32 56.32 58 57 C59.32 56.34 60.64 55.68 62 55 C62.44730469 55.79664063 62.89460938 56.59328125 63.35546875 57.4140625 C66.55016163 63.01328968 69.63787598 68.24131925 74 73 C72.9275 72.95875 71.855 72.9175 70.75 72.875 C67.34252515 72.9885825 65.79260369 73.21273364 63 75 C63 74.34 63 73.68 63 73 C62.34 73 61.68 73 61 73 C61.20625 73.61875 61.4125 74.2375 61.625 74.875 C61.74875 75.57625 61.8725 76.2775 62 77 C61.34 77.66 60.68 78.32 60 79 C59.34 77.02 58.68 75.04 58 73 C58 73.66 58 74.32 58 75 C57.34 75 56.68 75 56 75 C55.67 74.34 55.34 73.68 55 73 C52.69 73 50.38 73 48 73 C48 72.34 48 71.68 48 71 C46.9171875 71.495 46.9171875 71.495 45.8125 72 C42.01792899 73.3491808 39.41611387 73.61237356 35.6875 72 C34.8521875 71.505 34.8521875 71.505 34 71 C33.01 71.66 32.02 72.32 31 73 C13.63822622 59.07106627 -0.16876225 41.54817633 -4 19 C-5.1031213 5.20624259 -5.1031213 5.20624259 -3 1 C-2.01 0.67 -1.02 0.34 0 0 Z " fill="#A185AF" transform="translate(40,115)"/>
<path d="M0 0 C0.33 0 0.66 0 1 0 C1.02505615 1.21582764 1.0501123 2.43165527 1.07592773 3.68432617 C1.17024189 8.20379817 1.27040369 12.72312508 1.37231445 17.24243164 C1.41557258 19.19682415 1.45725398 21.15125222 1.49731445 23.10571289 C1.55523836 25.91824045 1.61886873 28.73059048 1.68359375 31.54296875 C1.70030624 32.41398727 1.71701874 33.2850058 1.73423767 34.18241882 C1.83338575 38.2610067 2.13384034 42.00293936 3 46 C3.08902628 47.84082823 3.13060364 49.68436536 3.1328125 51.52734375 C3.13410156 52.56697266 3.13539063 53.60660156 3.13671875 54.67773438 C3.13285156 55.75345703 3.12898438 56.82917969 3.125 57.9375 C3.13080078 59.5452832 3.13080078 59.5452832 3.13671875 61.18554688 C3.1304224 66.26984721 2.87807713 70.98735497 2 76 C1.87991397 79.12616817 1.90507405 82.24714279 1.9375 85.375 C1.94201172 86.20644531 1.94652344 87.03789062 1.95117188 87.89453125 C1.96286836 89.92971897 1.98080065 91.96486923 2 94 C2.33 93.34 2.66 92.68 3 92 C3.66 92 4.32 92 5 92 C5.226875 91.360625 5.45375 90.72125 5.6875 90.0625 C10.54545455 78.72727273 10.54545455 78.72727273 14 77 C10.97093592 92.75113321 3.12053149 109.1941291 -10 119 C-8.53447054 115.1670768 -6.85375622 111.70751245 -5 108 C-15.89 107.505 -15.89 107.505 -27 107 C-27 97.1 -27 87.2 -27 77 C-28.65 77 -30.3 77 -32 77 C-32 75.35 -32 73.7 -32 72 C-34.475 72.495 -34.475 72.495 -37 73 C-37 73.99 -37 74.98 -37 76 C-36.34 76.33 -35.68 76.66 -35 77 C-35.33 78.65 -35.66 80.3 -36 82 C-36.66 82 -37.32 82 -38 82 C-38.33 82.99 -38.66 83.98 -39 85 C-40.65 85 -42.3 85 -44 85 C-44 85.99 -44 86.98 -44 88 C-44.66 88 -45.32 88 -46 88 C-45.938125 88.928125 -45.87625 89.85625 -45.8125 90.8125 C-45.7799613 96.08376961 -47.48093937 100.99975875 -49 106 C-49.33 106 -49.66 106 -50 106 C-50 89.17 -50 72.34 -50 55 C-44 61 -44 61 -44 65 C-40.16558228 65.16788169 -36.69678995 65.09034535 -33 64 C-30.57758727 61.27991791 -29.24456112 58.403634 -28 55 C-27.34 55 -26.68 55 -26 55 C-26 71.83 -26 88.66 -26 106 C-17.42 106 -8.84 106 0 106 C0 71.02 0 36.04 0 0 Z " fill="#4E3566" transform="translate(187,60)"/>
<path d="M0 0 C11.5004938 14.1365156 14.34923718 29.65815089 14.5625 47.375 C14.58940918 48.67099121 14.61631836 49.96698242 14.64404297 51.30224609 C14.61214124 59.276649 13.5846157 64.47292954 9 71 C8.47792969 71.93972656 7.95585937 72.87945312 7.41796875 73.84765625 C6.27864583 75.8984375 5.13932292 77.94921875 4 80 C3.34 80 2.68 80 2 80 C1.67 81.65 1.34 83.3 1 85 C0.67 85 0.34 85 0 85 C-0.02922646 81.62501842 -0.04687468 78.25006979 -0.0625 74.875 C-0.07087891 73.92367187 -0.07925781 72.97234375 -0.08789062 71.9921875 C-0.1133207 64.66832447 -0.1133207 64.66832447 0.49609375 61.07421875 C1.31904288 56.05359109 1.14332052 51.01533735 1.125 45.9375 C1.12886719 44.86177734 1.13273438 43.78605469 1.13671875 42.67773438 C1.13542969 41.63810547 1.13414062 40.59847656 1.1328125 39.52734375 C1.13112061 38.11569946 1.13112061 38.11569946 1.12939453 36.67553711 C1.07088248 34.02592528 1.07088248 34.02592528 0.49780273 31.58154297 C-0.1155957 28.40053511 -0.11192599 25.40720066 -0.09765625 22.16796875 C-0.09443359 20.87568359 -0.09121094 19.58339844 -0.08789062 18.25195312 C-0.07953665 16.89713474 -0.07107172 15.54231703 -0.0625 14.1875 C-0.05748 12.81315265 -0.05291797 11.43880355 -0.04882812 10.06445312 C-0.03705668 6.70959076 -0.02061283 3.35481779 0 0 Z " fill="#8A7199" transform="translate(188,72)"/>
<path d="M0 0 C-0.99 0.33 -1.98 0.66 -3 1 C-2.505 2.485 -2.505 2.485 -2 4 C-3.32 3.67 -4.64 3.34 -6 3 C-6.33 3.66 -6.66 4.32 -7 5 C-7.66 5 -8.32 5 -9 5 C-9 5.66 -9 6.32 -9 7 C-7.8553125 6.9690625 -7.8553125 6.9690625 -6.6875 6.9375 C-4 7 -4 7 -1 8 C-0.01 8 0.98 8 2 8 C2.433125 7.071875 2.433125 7.071875 2.875 6.125 C4 4 4 4 6 2 C7.33332095 4.6666419 6.67102033 6.16680303 6 9 C6.99 9 7.98 9 9 9 C8.67 9.33 8.34 9.66 8 10 C8.66 10.66 9.32 11.32 10 12 C9.01 13.32 8.02 14.64 7 16 C8.32 16.33 9.64 16.66 11 17 C10.66226563 17.60328125 10.32453125 18.2065625 9.9765625 18.828125 C9.30753906 20.02695312 9.30753906 20.02695312 8.625 21.25 C8.18414062 22.03890625 7.74328125 22.8278125 7.2890625 23.640625 C6.14252177 25.73914197 5.05350448 27.8536077 4 30 C1.50655838 29.6166754 0.3048132 29.35728239 -1.36157227 27.40405273 C-1.82104248 26.77442627 -2.2805127 26.1447998 -2.75390625 25.49609375 C-6.78890063 21.28009028 -11.01760201 21.18264948 -16.53067017 21.04672241 C-18.66690614 21.0290307 -20.8012915 21.04491308 -22.9375 21.0625 C-24.39912024 21.04937604 -25.86071597 21.03312868 -27.32226562 21.01367188 C-30.88194559 20.97303385 -34.44010632 20.97489228 -38 21 C-31.85129152 14.7842147 -9.74213652 -4.87106826 0 0 Z " fill="#AF8EC4" transform="translate(98,39)"/>
<path d="M0 0 C0.55171875 0.33773437 1.1034375 0.67546875 1.671875 1.0234375 C4.50305405 2.21101261 6.22704656 2.02275703 9.25 1.625 C10.58804688 1.45871094 10.58804688 1.45871094 11.953125 1.2890625 C12.62859375 1.19367188 13.3040625 1.09828125 14 1 C14 1.66 14 2.32 14 3 C17.465 2.505 17.465 2.505 21 2 C21.33 2.99 21.66 3.98 22 5 C22.66 5 23.32 5 24 5 C24 4.34 24 3.68 24 3 C26 4 26 4 27 6 C27 5.01 27 4.02 27 3 C28.32 3 29.64 3 31 3 C32.03125 2.773125 33.0625 2.54625 34.125 2.3125 C38.58861407 1.95253112 41.58716056 2.86170311 45.765625 4.30859375 C48.08783676 5.14780558 48.08783676 5.14780558 51 5 C52.66666667 5 54.33333333 5 56 5 C56 5.66 56 6.32 56 7 C54.02 7.66 52.04 8.32 50 9 C51.98 9 53.96 9 56 9 C55.34 9.33 54.68 9.66 54 10 C54 10.66 54 11.32 54 12 C54.99 11.67 55.98 11.34 57 11 C57.495 12.485 57.495 12.485 58 14 C58.66 14.33 59.32 14.66 60 15 C60 15.66 60 16.32 60 17 C38.88203472 20.41493617 19.62838834 16.32081938 1.1328125 5.6484375 C0.42898437 5.10445312 -0.27484375 4.56046875 -1 4 C-1 1 -1 1 0 0 Z " fill="#B496C3" transform="translate(74,185)"/>
<path d="M0 0 C1.65 0 3.3 0 5 0 C5 1.65 5 3.3 5 5 C6.65 5 8.3 5 10 5 C10 8.96 10 12.92 10 17 C7.69 17 5.38 17 3 17 C3.04898438 17.98742187 3.09796875 18.97484375 3.1484375 19.9921875 C3.14625318 24.33243551 1.99917627 28.04107165 0.625 32.125 C0.40328125 32.81464844 0.1815625 33.50429687 -0.046875 34.21484375 C-0.6760476 36.15047476 -1.33712388 38.07565055 -2 40 C-2.32226562 40.96679688 -2.64453125 41.93359375 -2.9765625 42.9296875 C-3.48316406 43.95449219 -3.48316406 43.95449219 -4 45 C-5.485 45.495 -5.485 45.495 -7 46 C-8.66710346 47.49985609 -8.66710346 47.49985609 -10 49 C-10.33 48.67 -10.66 48.34 -11 48 C-11.99 48 -12.98 48 -14 48 C-13.01 46.35 -12.02 44.7 -11 43 C-11.99 43.66 -12.98 44.32 -14 45 C-14.99 44.34 -15.98 43.68 -17 43 C-16.67386719 42.3915625 -16.34773437 41.783125 -16.01171875 41.15625 C-12.77884015 34.67141976 -11.09438405 28.58544113 -9.98901367 21.484375 C-9.43627864 17.98960758 -8.83473936 15.052694 -7 12 C-5.35 12 -3.7 12 -2 12 C-1.67 11.34 -1.34 10.68 -1 10 C-0.34 10 0.32 10 1 10 C1.33 8.35 1.66 6.7 2 5 C1.01 4.67 0.02 4.34 -1 4 C-0.67 2.68 -0.34 1.36 0 0 Z " fill="#9179A1" transform="translate(150,132)"/>
<path d="M0 0 C2.31 0 4.62 0 7 0 C7 5.94 7 11.88 7 18 C14.59 18 22.18 18 30 18 C25.5 28.125 25.5 28.125 23 31 C22.34 30.67 21.68 30.34 21 30 C20.5859375 27.93359375 20.5859375 27.93359375 20.375 25.4375 C20.30023438 24.61121094 20.22546875 23.78492188 20.1484375 22.93359375 C20.07496094 21.97646484 20.07496094 21.97646484 20 21 C15.59841006 22.59206445 12.32056843 24.40777863 8.6875 27.375 C2.78620166 32.13638943 -3.46158621 35.7435977 -11 37 C-9.65681171 32.899741 -8.30652446 28.81839054 -6.79296875 24.77734375 C-3.73133605 16.57290808 -1.60814889 8.60294283 0 0 Z " fill="#8648A6" transform="translate(153,149)"/>
<path d="M0 0 C6 6 6 6 6 10 C10.29 10 14.58 10 19 10 C19 13.96 19 17.92 19 22 C18.67 22 18.34 22 18 22 C18 20.35 18 18.7 18 17 C16.35 17.33 14.7 17.66 13 18 C13 18.99 13 19.98 13 21 C13.66 21.33 14.32 21.66 15 22 C14.67 23.65 14.34 25.3 14 27 C13.34 27 12.68 27 12 27 C11.67 27.99 11.34 28.98 11 30 C9.35 30 7.7 30 6 30 C6 30.99 6 31.98 6 33 C5.34 33 4.68 33 4 33 C4.061875 33.928125 4.12375 34.85625 4.1875 35.8125 C4.2200387 41.08376961 2.51906063 45.99975875 1 51 C0.67 51 0.34 51 0 51 C0 34.17 0 17.34 0 0 Z " fill="#786382" transform="translate(137,115)"/>
<path d="M0 0 C0.66 0.33 1.32 0.66 2 1 C2.6328125 3.06640625 2.6328125 3.06640625 3.125 5.5625 C3.37636719 6.80193359 3.37636719 6.80193359 3.6328125 8.06640625 C3.75398438 8.70449219 3.87515625 9.34257812 4 10 C3.195625 10.474375 2.39125 10.94875 1.5625 11.4375 C-0.84753488 12.76900154 -0.84753488 12.76900154 -2 14 C-2.66 14.66 -3.32 15.32 -4 16 C-3.67889311 19.53217579 -3.12183498 22.63449506 -2 26 C-12.6439708 23.06905152 -21.75144903 17.29029106 -30 10 C-30.33 9.34 -30.66 8.68 -31 8 C-33.01669827 6.86649466 -33.01669827 6.86649466 -35 6 C-33.76697144 5.970271 -33.76697144 5.970271 -32.5090332 5.93994141 C-28.77653874 5.84455397 -25.0445933 5.73492911 -21.3125 5.625 C-20.01892578 5.5940625 -18.72535156 5.563125 -17.39257812 5.53125 C-16.14541016 5.49257812 -14.89824219 5.45390625 -13.61328125 5.4140625 C-12.46641846 5.3826416 -11.31955566 5.3512207 -10.13793945 5.31884766 C-7.00014229 5.00001446 -4.7856164 4.46307129 -2 3 C-1.34 2.01 -0.68 1.02 0 0 Z " fill="#7E3E90" transform="translate(98,160)"/>
<path d="M0 0 C0.33 0 0.66 0 1 0 C1 34.98 1 69.96 1 106 C9.58 106 18.16 106 27 106 C27 106.33 27 106.66 27 107 C18.09 107 9.18 107 0 107 C-0.165 104.2775 -0.33 101.555 -0.5 98.75 C-0.59680054 97.32469971 -0.59680054 97.32469971 -0.69555664 95.87060547 C-1.00477488 90.52703627 -0.92342969 85.40309651 -0.43359375 80.0703125 C0.94814799 65.76937613 0.94814799 65.76937613 -5.00390625 53.24609375 C-8.81820755 49.2307576 -12.9332368 45.66206023 -17.34765625 42.3215332 C-17.89292969 41.88542725 -18.43820313 41.44932129 -19 41 C-19 40.67 -19 40.34 -19 40 C-12.73 40 -6.46 40 0 40 C-0.0721875 38.51886719 -0.144375 37.03773437 -0.21875 35.51171875 C-0.31253765 33.57031432 -0.40628559 31.62890797 -0.5 29.6875 C-0.57154297 28.22280273 -0.57154297 28.22280273 -0.64453125 26.72851562 C-0.68964844 25.79072266 -0.73476562 24.85292969 -0.78125 23.88671875 C-0.82314453 23.02264404 -0.86503906 22.15856934 -0.90820312 21.26831055 C-1.09058868 16.76154405 -0.79050986 12.30755119 -0.5 7.8125 C-0.45230469 7.06291016 -0.40460938 6.31332031 -0.35546875 5.54101562 C-0.23782168 3.69395656 -0.11902229 1.84697096 0 0 Z " fill="#572F6E" transform="translate(110,60)"/>
<path d="M0 0 C5.10596667 3.57417667 5.9964403 4.9928806 9 11 C1.74 11 -5.52 11 -13 11 C-13 16.28 -13 21.56 -13 27 C-17 27 -17 27 -18.703125 25.46875 C-19.21359375 24.8190625 -19.7240625 24.169375 -20.25 23.5 C-20.77078125 22.8503125 -21.2915625 22.200625 -21.828125 21.53125 C-22.21484375 21.0259375 -22.6015625 20.520625 -23 20 C-22.34 20 -21.68 20 -21 20 C-20.814375 19.05125 -20.62875 18.1025 -20.4375 17.125 C-18.5357258 10.42090388 -13.85953613 3.781852 -8 0 C-4.55442687 -1.14852438 -3.41628713 -1.11227953 0 0 Z " fill="#814CAC" transform="translate(123,49)"/>
<path d="M0 0 C0.66 0.33 1.32 0.66 2 1 C2 2.98 2 4.96 2 7 C2.66 7 3.32 7 4 7 C3.83612793 7.56082275 3.67225586 8.12164551 3.50341797 8.69946289 C2.5826766 12.90709914 2.97322915 17.15581082 3.125 21.4375 C3.1353125 22.37916016 3.145625 23.32082031 3.15625 24.29101562 C3.31993601 30.31438465 3.31993601 30.31438465 6.5546875 35.16015625 C7.76511719 36.07087891 7.76511719 36.07087891 9 37 C8.34 38.32 7.68 39.64 7 41 C7.99 41.66 8.98 42.32 10 43 C9.01 43.99 8.02 44.98 7 46 C1.93606015 38.91048422 -0.52695923 31.2561515 -3 23 C-3.31324219 22.03707031 -3.31324219 22.03707031 -3.6328125 21.0546875 C-4.23571786 17.68098304 -4.14332823 14.29016086 -4.125 10.875 C-4.12886719 10.14667969 -4.13273437 9.41835937 -4.13671875 8.66796875 C-4.12671034 3.25342069 -4.12671034 3.25342069 -3 1 C-2.01 0.67 -1.02 0.34 0 0 Z " fill="#AA8CB9" transform="translate(40,115)"/>
<path d="M0 0 C4.53665737 3.7301405 8.77941122 7.67053566 12.9375 11.8125 C13.68253784 12.55077026 13.68253784 12.55077026 14.44262695 13.30395508 C18 16.87624634 18 16.87624634 18 18 C12.06 18 6.12 18 0 18 C0 24.93 0 31.86 0 39 C-0.33 39 -0.66 39 -1 39 C-1.22573595 35.39670111 -1.42759125 31.79245301 -1.625 28.1875 C-1.68945312 27.16333984 -1.75390625 26.13917969 -1.8203125 25.08398438 C-1.871875 24.10107422 -1.9234375 23.11816406 -1.9765625 22.10546875 C-2.05511475 20.74651489 -2.05511475 20.74651489 -2.13525391 19.36010742 C-2 17 -2 17 0 14 C-0.66 14 -1.32 14 -2 14 C-2.33 12.02 -2.66 10.04 -3 8 C-4.65 8.66 -6.3 9.32 -8 10 C-7.75 7.625 -7.75 7.625 -7 5 C-5.125 3.625 -5.125 3.625 -3 3 C-2.01 3.33 -1.02 3.66 0 4 C0 2.68 0 1.36 0 0 Z " fill="#90739E" transform="translate(44,108)"/>
<path d="M0 0 C3.29612461 4.07795697 6.39004581 7.94596661 8 13 C7.25 16 7.25 16 6 18 C6.66 18 7.32 18 8 18 C7.690625 19.051875 7.38125 20.10375 7.0625 21.1875 C6.24314906 24.12752396 5.54516069 27.00161623 5 30 C5.66 30 6.32 30 7 30 C6.68950274 31.43793392 6.3765224 32.8753318 6.0625 34.3125 C5.88847656 35.11300781 5.71445313 35.91351563 5.53515625 36.73828125 C5 39 5 39 4 42 C4.00723758 45.61879062 4.07600888 49.22410093 4.21484375 52.83984375 C4.32515072 58.62594577 4.32515072 58.62594577 2.48388672 60.74414062 C1.9942041 61.15857422 1.50452148 61.57300781 1 62 C1.00523682 61.17798096 1.01047363 60.35596191 1.01586914 59.5090332 C1.03668393 55.77686327 1.04967455 52.04470558 1.0625 48.3125 C1.07506836 46.37213867 1.07506836 46.37213867 1.08789062 44.39257812 C1.09111328 43.14541016 1.09433594 41.89824219 1.09765625 40.61328125 C1.10289307 39.46641846 1.10812988 38.31955566 1.11352539 37.13793945 C1.08789434 34.09065272 1.08789434 34.09065272 0.5 31.51367188 C-0.12774522 28.35778087 -0.11182808 25.38497489 -0.09765625 22.16796875 C-0.09443359 20.87568359 -0.09121094 19.58339844 -0.08789062 18.25195312 C-0.07953665 16.89713474 -0.07107172 15.54231703 -0.0625 14.1875 C-0.05748 12.81315265 -0.05291797 11.43880355 -0.04882812 10.06445312 C-0.03705668 6.70959076 -0.02061283 3.35481779 0 0 Z " fill="#856B95" transform="translate(188,72)"/>
<path d="M0 0 C3.75409842 0.59770082 6.69658253 1.6843096 10.0625 3.4375 C10.89910156 3.86933594 11.73570312 4.30117188 12.59765625 4.74609375 C13.39042969 5.15988281 14.18320313 5.57367188 15 6 C16.33197833 6.66936982 17.66482167 7.33703616 19 8 C18.09476787 12.2002771 16.09717906 15.57966461 13.9375 19.25 C13.56044922 19.8996875 13.18339844 20.549375 12.79492188 21.21875 C11.86765885 22.81505091 10.93441544 24.40787529 10 26 C7.94946503 22.1946803 6.49886498 18.16896741 5 14.125 C4.73960937 13.43019531 4.47921875 12.73539063 4.2109375 12.01953125 C2.72617699 8.03767352 1.31749106 4.04115047 0 0 Z " fill="#794BA8" transform="translate(142,52)"/>
<path d="M0 0 C0.66 0.99 1.32 1.98 2 3 C1.01 4.485 1.01 4.485 0 6 C0.99 6.33 1.98 6.66 3 7 C4.32 5.68 5.64 4.36 7 3 C6.125 9.75 6.125 9.75 5 12 C5.68707031 11.72285156 6.37414062 11.44570312 7.08203125 11.16015625 C7.98308594 10.79792969 8.88414062 10.43570313 9.8125 10.0625 C10.70582031 9.70285156 11.59914062 9.34320313 12.51953125 8.97265625 C14.3270909 8.26386514 16.15807409 7.6139753 18 7 C18.495 9.475 18.495 9.475 19 12 C18.01 11.67 17.02 11.34 16 11 C13.9754262 12.93254772 12.57894208 14.63158688 11 17 C10.1028125 16.690625 10.1028125 16.690625 9.1875 16.375 C6.71549154 15.69328085 6.71549154 15.69328085 4 18 C1.8125 18.625 1.8125 18.625 0 19 C0 18.34 0 17.68 0 17 C-0.66 17 -1.32 17 -2 17 C-2.33 15.35 -2.66 13.7 -3 12 C-3.66 12 -4.32 12 -5 12 C-5.33 11.34 -5.66 10.68 -6 10 C-8.97 12.475 -8.97 12.475 -12 15 C-12.66 14.67 -13.32 14.34 -14 14 C-13.51789063 13.45730469 -13.03578125 12.91460937 -12.5390625 12.35546875 C-11.90742187 11.64003906 -11.27578125 10.92460937 -10.625 10.1875 C-9.68527344 9.12595703 -9.68527344 9.12595703 -8.7265625 8.04296875 C-6.859401 5.91196181 -6.859401 5.91196181 -5 3 C-3.67405895 2.63837971 -2.34061543 2.30271961 -1 2 C-0.67 1.34 -0.34 0.68 0 0 Z M-4 10 C-3.34 10.66 -2.68 11.32 -2 12 C-2 11.34 -2 10.68 -2 10 C-2.66 10 -3.32 10 -4 10 Z " fill="#A384B8" transform="translate(138,173)"/>
<path d="M0 0 C0 1.32 0 2.64 0 4 C1.32 3.67 2.64 3.34 4 3 C4 4.32 4 5.64 4 7 C5.32 7.33 6.64 7.66 8 8 C8.33 6.35 8.66 4.7 9 3 C10.32 3.33 11.64 3.66 13 4 C12.66226563 4.60328125 12.32453125 5.2065625 11.9765625 5.828125 C11.53054687 6.62734375 11.08453125 7.4265625 10.625 8.25 C10.18414062 9.03890625 9.74328125 9.8278125 9.2890625 10.640625 C8.14252177 12.73914197 7.05350448 14.8536077 6 17 C2.40602455 16.44231415 1.21300587 15.31236162 -1 12.5 C-4.26495389 9.0064279 -6.70492661 8.42482894 -11.4375 8.0625 C-13.29104575 8.01019135 -15.14583878 7.9786878 -17 8 C-11.94688807 3.57852707 -6.81672599 0 0 0 Z " fill="#A78BB9" transform="translate(96,52)"/>
<path d="M0 0 C0.99 0.33 1.98 0.66 3 1 C4.1138797 3.38778155 4.93392791 5.5560103 5.6875 8.0625 C6.01947388 9.1606604 6.01947388 9.1606604 6.3581543 10.28100586 C9.12078043 20.63048203 8.4355175 31.38811357 8 42 C7.01 42.495 7.01 42.495 6 43 C3.74931185 38.63101712 4.20658507 35.76048957 5 31 C4.67 30.01 4.34 29.02 4 28 C4 26.33333333 4 24.66666667 4 23 C3.34 23 2.68 23 2 23 C2 22.01 2 21.02 2 20 C1.01 20.33 0.02 20.66 -1 21 C-0.34 19.35 0.32 17.7 1 16 C0.34 16 -0.32 16 -1 16 C-1.625 14.125 -1.625 14.125 -2 12 C-1.34 11.34 -0.68 10.68 0 10 C0.71408334 8.01643517 1.38617742 6.01684563 2 4 C1.34 4 0.68 4 0 4 C0 2.68 0 1.36 0 0 Z " fill="#8C719D" transform="translate(194,86)"/>
<path d="M0 0 C2 7.625 2 7.625 2 11 C0.3125 13.25 0.3125 13.25 -2 15 C-4.75 14.75 -4.75 14.75 -7 14 C-7 13.34 -7 12.68 -7 12 C-7.66 11.67 -8.32 11.34 -9 11 C-9.33 11.33 -9.66 11.66 -10 12 C-11.32520503 12.68268138 -12.65812182 13.3507041 -14 14 C-14.66 12.35 -15.32 10.7 -16 9 C-14.56351736 7.87370125 -13.12577415 6.7490101 -11.6875 5.625 C-10.88699219 4.99851563 -10.08648437 4.37203125 -9.26171875 3.7265625 C-4.3800905 0 -4.3800905 0 0 0 Z " fill="#9C7FB7" transform="translate(173,170)"/>
<path d="M0 0 C1.65 0 3.3 0 5 0 C5 1.65 5 3.3 5 5 C6.65 5 8.3 5 10 5 C10 5.33 10 5.66 10 6 C8.02 6 6.04 6 4 6 C4.33 7.32 4.66 8.64 5 10 C3.50260417 11.171875 2.00520833 12.34375 0.5078125 13.515625 C-3.05723413 17.0252564 -3.50065821 21.22761962 -4.2421875 25.9765625 C-5 28 -5 28 -6.9453125 29.3359375 C-9 30 -9 30 -11 29 C-10.855625 28.154375 -10.71125 27.30875 -10.5625 26.4375 C-10.17853697 24.09105925 -9.84739021 21.73551888 -9.5625 19.375 C-9.07297758 16.43786551 -8.51209172 14.52015287 -7 12 C-5.35 12 -3.7 12 -2 12 C-1.67 11.34 -1.34 10.68 -1 10 C-0.34 10 0.32 10 1 10 C1.33 8.35 1.66 6.7 2 5 C1.01 4.67 0.02 4.34 -1 4 C-0.67 2.68 -0.34 1.36 0 0 Z " fill="#887193" transform="translate(150,132)"/>
<path d="M0 0 C4.974151 4.974151 7.16899161 8.22252219 7.25 15.25 C7.16981132 19.66037736 7.16981132 19.66037736 6 22 C4.35 22 2.7 22 1 22 C1 31.57 1 41.14 1 51 C0.67 51 0.34 51 0 51 C0 34.17 0 17.34 0 0 Z " fill="#533068" transform="translate(137,115)"/>
<path d="M0 0 C1.70703125 1.19921875 1.70703125 1.19921875 3 3 C3.29296875 5.48046875 3.29296875 5.48046875 3.1875 8.1875 C3.16042969 9.08855469 3.13335937 9.98960938 3.10546875 10.91796875 C3.07066406 11.60503906 3.03585938 12.29210937 3 13 C-4.90069513 13.45580933 -4.90069513 13.45580933 -8.5625 11.9375 C-10.79083695 8.93408933 -10.45264211 6.62113687 -10 3 C-7.77766882 -1.05248626 -4.20052866 -0.45005664 0 0 Z " fill="#6D5974" transform="translate(80,87)"/>
<path d="M0 0 C7.95467422 -0.45892351 7.95467422 -0.45892351 11.5625 1.125 C13 3 13 3 13.5 5.9375 C13 9 13 9 11.375 11.375 C8.32214079 13.46379841 6.63031776 13.54068562 3 13 C1.328125 11.796875 1.328125 11.796875 0 10 C-0.29296875 7.51953125 -0.29296875 7.51953125 -0.1875 4.8125 C-0.16042969 3.91144531 -0.13335937 3.01039063 -0.10546875 2.08203125 C-0.07066406 1.39496094 -0.03585938 0.70789063 0 0 Z " fill="#603371" transform="translate(71,127)"/>
<path d="M0 0 C0.66 0 1.32 0 2 0 C2 16.83 2 33.66 2 51 C5.63 51 9.26 51 13 51 C13 51.33 13 51.66 13 52 C9.04 52 5.08 52 1 52 C1 42.1 1 32.2 1 22 C-0.32 22 -1.64 22 -3 22 C-3 18.04 -3 14.08 -3 10 C-3.66 9.67 -4.32 9.34 -5 9 C-3.35 6.03 -1.7 3.06 0 0 Z " fill="#4A2F5A" transform="translate(159,115)"/>
<path d="M0 0 C0.99 0.66 1.98 1.32 3 2 C4.32 1.34 5.64 0.68 7 0 C7.86658615 1.26239712 8.71792059 2.53527501 9.5625 3.8125 C10.27599609 4.87404297 10.27599609 4.87404297 11.00390625 5.95703125 C12 8 12 8 11 11 C10.01 11.495 10.01 11.495 9 12 C9.33 12.66 9.66 13.32 10 14 C7.625 15.0625 7.625 15.0625 5 16 C4.34 15.67 3.68 15.34 3 15 C3 14.34 3 13.68 3 13 C2.67 13.33 2.34 13.66 2 14 C1.01 14.495 1.01 14.495 0 15 C-1.85274014 11.87350101 -2.37198336 9.62683775 -2 6 C-1.34 5.01 -0.68 4.02 0 3 C0 2.01 0 1.02 0 0 Z " fill="#9E83AA" transform="translate(95,170)"/>
<path d="M0 0 C0.33 0 0.66 0 1 0 C1 34.98 1 69.96 1 106 C9.58 106 18.16 106 27 106 C27 106.33 27 106.66 27 107 C18.09 107 9.18 107 0 107 C-1.11699145 89.41837873 -1.11999466 71.88650976 -1.06866455 54.27935791 C-1.05829284 50.3392389 -1.05383247 46.39911321 -1.04882812 42.45898438 C-1.03935717 35.57521546 -1.02492572 28.69147602 -1.00672913 21.807724 C-1.00208945 19.87182026 -1 17.9359093 -1 16 C-0.84254966 13.2699236 -0.67636198 10.54134412 -0.5 7.8125 C-0.45230469 7.06291016 -0.40460938 6.31332031 -0.35546875 5.54101562 C-0.23782168 3.69395656 -0.11902229 1.84697096 0 0 Z " fill="#2E1A37" transform="translate(110,60)"/>
<path d="M0 0 C0.66 0 1.32 0 2 0 C2 1.32 2 2.64 2 4 C2.66 4 3.32 4 4 4 C4.33 3.34 4.66 2.68 5 2 C5.66 3.65 6.32 5.3 7 7 C1.1943516 11.00172237 -2.97930721 11.52515287 -9.9375 11.25 C-10.81212891 11.23195313 -11.68675781 11.21390625 -12.58789062 11.1953125 C-14.72574108 11.14858353 -16.86302045 11.07685441 -19 11 C-16.42215154 8.35247996 -14.08351902 6.05567935 -11 4 C-11 4.66 -11 5.32 -11 6 C-9.02 6 -7.04 6 -5 6 C-4.67 4.68 -4.34 3.36 -4 2 C-3.67 2.66 -3.34 3.32 -3 4 C-2.01 4 -1.02 4 0 4 C0 2.68 0 1.36 0 0 Z " fill="#A887BD" transform="translate(79,49)"/>
<path d="M0 0 C0.33 0 0.66 0 1 0 C1.33 8.58 1.66 17.16 2 26 C0.02 26.33 -1.96 26.66 -4 27 C-4.66 27.66 -5.32 28.32 -6 29 C-6.95000048 19.0355505 -4.47490717 8.94981433 0 0 Z " fill="#A684B8" transform="translate(42,86)"/>
<path d="M0 0 C1.32 1.32 2.64 2.64 4 4 C4.99 3.01 5.98 2.02 7 1 C7.84334329 3.22582389 8.67478551 5.45496026 9.5 7.6875 C9.73847656 8.31333984 9.97695312 8.93917969 10.22265625 9.58398438 C11.5412725 13.18192299 12.29329235 16.16520253 12 20 C10.68 20 9.36 20 8 20 C6.53613281 18.47119141 6.53613281 18.47119141 5.203125 16.3515625 C4.71972656 15.59359375 4.23632812 14.835625 3.73828125 14.0546875 C3.00158203 12.85199219 3.00158203 12.85199219 2.25 11.625 C1.49009766 10.43390625 1.49009766 10.43390625 0.71484375 9.21875 C-3 3.311047 -3 3.311047 -3 1 C-2.01 0.67 -1.02 0.34 0 0 Z " fill="#987EA8" transform="translate(139,59)"/>
<path d="M0 0 C2.625 0.25 2.625 0.25 4.3125 1.625 C4.745625 2.16125 5.17875 2.6975 5.625 3.25 C6.285 3.91 6.945 4.57 7.625 5.25 C6.65552539 6.9549381 5.684942 8.65926162 4.70703125 10.359375 C3.79054757 11.96073998 2.89313092 13.5729941 2 15.1875 C1.54625 15.868125 1.0925 16.54875 0.625 17.25 C-0.035 17.25 -0.695 17.25 -1.375 17.25 C-1.705 18.9 -2.035 20.55 -2.375 22.25 C-2.705 22.25 -3.035 22.25 -3.375 22.25 C-3.40387814 18.77085059 -3.42175687 15.29173169 -3.4375 11.8125 C-3.44587891 10.81927734 -3.45425781 9.82605469 -3.46289062 8.80273438 C-3.46611328 7.85849609 -3.46933594 6.91425781 -3.47265625 5.94140625 C-3.47789307 5.06685791 -3.48312988 4.19230957 -3.48852539 3.29125977 C-3.32344044 0.3229258 -2.96144885 0.31173146 0 0 Z " fill="#7D6593" transform="translate(191.375,134.75)"/>
<path d="M0 0 C1.98 0 3.96 0 6 0 C6 3.63 6 7.26 6 11 C3.69 11 1.38 11 -1 11 C-1 13.31 -1 15.62 -1 18 C-2.65 18.33 -4.3 18.66 -6 19 C-6.144375 18.38125 -6.28875 17.7625 -6.4375 17.125 C-6.93152225 14.96741678 -6.93152225 14.96741678 -8 13 C-6.07666989 8.93963643 -3.59930552 6.62652025 0 4 C-0.33 3.34 -0.66 2.68 -1 2 C-0.67 1.34 -0.34 0.68 0 0 Z " fill="#8C7598" transform="translate(154,138)"/>
<path d="M0 0 C0.66 0 1.32 0 2 0 C2 0.66 2 1.32 2 2 C2.99 2.33 3.98 2.66 5 3 C5.66 2.01 6.32 1.02 7 0 C7.66 0.33 8.32 0.66 9 1 C9.33 1.99 9.66 2.98 10 4 C10.99 4.33 11.98 4.66 13 5 C8.375 9.875 8.375 9.875 5 11 C2.645752 10.411438 0.31347872 9.73260159 -2 9 C-3.31124369 8.62063047 -4.62370066 8.24542213 -5.9375 7.875 C-6.948125 7.58625 -7.95875 7.2975 -9 7 C-6.33333333 5.66666667 -3.66666667 4.33333333 -1 3 C-1 3.66 -1 4.32 -1 5 C-0.34 5 0.32 5 1 5 C0.67 3.35 0.34 1.7 0 0 Z M-8 8 C-7.01 8 -6.02 8 -5 8 C-5.33 9.32 -5.66 10.64 -6 12 C-6.66 10.68 -7.32 9.36 -8 8 Z " fill="#A588BF" transform="translate(156,180)"/>
<path d="M0 0 C0.66 0.33 1.32 0.66 2 1 C2.6328125 3.06640625 2.6328125 3.06640625 3.125 5.5625 C3.29257813 6.38878906 3.46015625 7.21507812 3.6328125 8.06640625 C3.75398438 8.70449219 3.87515625 9.34257812 4 10 C3.195625 10.474375 2.39125 10.94875 1.5625 11.4375 C-1.77435464 13.47216746 -3.56309906 15.93422139 -6 19 C-6.50559908 17.56445975 -7.0042749 16.1264798 -7.5 14.6875 C-7.7784375 13.88699219 -8.056875 13.08648437 -8.34375 12.26171875 C-9 10 -9 10 -9 7 C-8.01 7 -7.02 7 -6 7 C-5.67 6.01 -5.34 5.02 -5 4 C-4.01 3.67 -3.02 3.34 -2 3 C-1.34 2.01 -0.68 1.02 0 0 Z " fill="#866F90" transform="translate(98,160)"/>
<path d="M0 0 C5.27002208 4.39168507 10.35302051 8.9426379 15 14 C15 14.33 15 14.66 15 15 C10.38 15 5.76 15 1 15 C0.67 10.05 0.34 5.1 0 0 Z " fill="#824198" transform="translate(47,111)"/>
<path d="M0 0 C1 2 1 2 0.43359375 4.3984375 C-6.04206916 23.74924196 -6.04206916 23.74924196 -12 29 C-12.3690205 19.58997722 -12.3690205 19.58997722 -10 15 C-9.34 15 -8.68 15 -8 15 C-7.773125 14.360625 -7.54625 13.72125 -7.3125 13.0625 C-3 3 -3 3 0 0 Z " fill="#492F78" transform="translate(200,137)"/>
<path d="M0 0 C1.1725131 0.95117134 2.33787015 1.91117009 3.5 2.875 C4.47453125 3.67550781 4.47453125 3.67550781 5.46875 4.4921875 C6.22671875 5.23855469 6.22671875 5.23855469 7 6 C7 6.66 7 7.32 7 8 C6.34 8 5.68 8 5 8 C5.18828772 10.44480079 5.18828772 10.44480079 6 13 C7.96758273 14.36020151 7.96758273 14.36020151 10 15 C8.35 16.32 6.7 17.64 5 19 C2.69 15.7 0.38 12.4 -2 9 C-1.34 7.68 -0.68 6.36 0 5 C-0.99 4.01 -1.98 3.02 -3 2 C-2.01 1.34 -1.02 0.68 0 0 Z " fill="#9E84AB" transform="translate(49,153)"/>
<path d="M0 0 C0.66 0 1.32 0 2 0 C1.67 1.32 1.34 2.64 1 4 C1.66 4 2.32 4 3 4 C3 4.66 3 5.32 3 6 C2.34 6 1.68 6 1 6 C1.66 7.65 2.32 9.3 3 11 C3.66 11 4.32 11 5 11 C5 11.99 5 12.98 5 14 C5.66 14 6.32 14 7 14 C6.68950274 15.43793392 6.3765224 16.8753318 6.0625 18.3125 C5.88847656 19.11300781 5.71445313 19.91351563 5.53515625 20.73828125 C5 23 5 23 4 26 C4.00723758 29.61879062 4.07600888 33.22410093 4.21484375 36.83984375 C4.32515072 42.62594577 4.32515072 42.62594577 2.48388672 44.74414062 C1.9942041 45.15857422 1.50452148 45.57300781 1 46 C1.00523682 45.17798096 1.01047363 44.35596191 1.01586914 43.5090332 C1.03668393 39.77686327 1.04967455 36.04470558 1.0625 32.3125 C1.07506836 30.37213867 1.07506836 30.37213867 1.08789062 28.39257812 C1.09111328 27.14541016 1.09433594 25.89824219 1.09765625 24.61328125 C1.10289307 23.46641846 1.10812988 22.31955566 1.11352539 21.13793945 C1.0104245 18.28814225 0.60485324 15.77618184 0 13 C-0.06652855 10.73004581 -0.08543751 8.45831305 -0.0625 6.1875 C-0.05347656 5.02605469 -0.04445312 3.86460938 -0.03515625 2.66796875 C-0.02355469 1.78753906 -0.01195312 0.90710938 0 0 Z " fill="#7D658B" transform="translate(188,88)"/>
<path d="M0 0 C1.14926266 0.95421808 2.29430541 1.91352045 3.4375 2.875 C4.39462891 3.67550781 4.39462891 3.67550781 5.37109375 4.4921875 C7 6 7 6 8 8 C6.39125 7.938125 6.39125 7.938125 4.75 7.875 C1.34252515 7.9885825 -0.20739631 8.21273364 -3 10 C-3 9.34 -3 8.68 -3 8 C-3.66 8 -4.32 8 -5 8 C-4.690625 8.928125 -4.690625 8.928125 -4.375 9.875 C-4.25125 10.57625 -4.1275 11.2775 -4 12 C-4.66 12.66 -5.32 13.32 -6 14 C-6.66 12.02 -7.32 10.04 -8 8 C-8 8.66 -8 9.32 -8 10 C-8.66 10 -9.32 10 -10 10 C-10.33 9.01 -10.66 8.02 -11 7 C-9.948125 6.6596875 -9.948125 6.6596875 -8.875 6.3125 C-5.30656387 4.68343133 -2.93485489 2.59359269 0 0 Z " fill="#AA8DB9" transform="translate(106,180)"/>
<path d="M0 0 C1.49080078 0.02707031 1.49080078 0.02707031 3.01171875 0.0546875 C3.77097656 0.07789063 4.53023437 0.10109375 5.3125 0.125 C1.27377563 9.71953303 1.27377563 9.71953303 -1.6875 13.125 C-2.3475 12.795 -3.0075 12.465 -3.6875 12.125 C-4.1015625 10.05859375 -4.1015625 10.05859375 -4.3125 7.5625 C-4.38726562 6.73621094 -4.46203125 5.90992188 -4.5390625 5.05859375 C-4.58804688 4.42050781 -4.63703125 3.78242188 -4.6875 3.125 C-6.0075 2.795 -7.3275 2.465 -8.6875 2.125 C-5.26655758 -0.15562828 -4.00562778 -0.09425007 0 0 Z " fill="#836AA3" transform="translate(177.6875,166.875)"/>
<path d="M0 0 C4.87885059 0.41818719 6.77959703 2.44929929 10 6 C11.1446875 7.1446875 11.1446875 7.1446875 12.3125 8.3125 C12.869375 8.869375 13.42625 9.42625 14 10 C11.36 10.33 8.72 10.66 6 11 C6.66 10.67 7.32 10.34 8 10 C7.195625 9.87625 6.39125 9.7525 5.5625 9.625 C4.716875 9.41875 3.87125 9.2125 3 9 C2.67 8.34 2.34 7.68 2 7 C1.01 7 0.02 7 -1 7 C-1.33 6.01 -1.66 5.02 -2 4 C-1.34 4 -0.68 4 0 4 C0 2.68 0 1.36 0 0 Z " fill="#8F759C" transform="translate(63,167)"/>
<path d="M0 0 C2 7.625 2 7.625 2 11 C0.35 11.33 -1.3 11.66 -3 12 C-3 10.68 -3 9.36 -3 8 C-3.99 8.33 -4.98 8.66 -6 9 C-6.33 8.01 -6.66 7.02 -7 6 C-7.66 5.34 -8.32 4.68 -9 4 C-4.5 0 -4.5 0 0 0 Z " fill="#8F75AA" transform="translate(173,170)"/>
<path d="M0 0 C-1.9841117 6.86807896 -1.9841117 6.86807896 -5 9 C-7.91796875 9.07421875 -7.91796875 9.07421875 -11.1875 8.6875 C-12.81751953 8.50767578 -12.81751953 8.50767578 -14.48046875 8.32421875 C-15.31191406 8.21722656 -16.14335938 8.11023437 -17 8 C-11.94688807 3.57852707 -6.81672599 0 0 0 Z " fill="#8A51B2" transform="translate(96,52)"/>
<path d="M0 0 C0 5.94 0 11.88 0 18 C-1.32 18 -2.64 18 -4 18 C-4 14.04 -4 10.08 -4 6 C-4.66 5.67 -5.32 5.34 -6 5 C-1.125 0 -1.125 0 0 0 Z " fill="#5A3474" transform="translate(160,119)"/>
<path d="M0 0 C0.33 0 0.66 0 1 0 C1 19.8 1 39.6 1 60 C0.67 60 0.34 60 0 60 C-0.33 41.85 -0.66 23.7 -1 5 C-1.99 5.495 -1.99 5.495 -3 6 C-1.125 1.125 -1.125 1.125 0 0 Z " fill="#0A050D" transform="translate(163,103)"/>
<path d="M0 0 C0.66 0.99 1.32 1.98 2 3 C1.525625 3.763125 1.05125 4.52625 0.5625 5.3125 C-1.10106097 7.96410548 -1.10106097 7.96410548 -2 11 C-2.99 11.33 -3.98 11.66 -5 12 C-5.33 11.34 -5.66 10.68 -6 10 C-8.97 12.475 -8.97 12.475 -12 15 C-12.66 14.67 -13.32 14.34 -14 14 C-13.51789063 13.45730469 -13.03578125 12.91460937 -12.5390625 12.35546875 C-11.90742187 11.64003906 -11.27578125 10.92460937 -10.625 10.1875 C-9.68527344 9.12595703 -9.68527344 9.12595703 -8.7265625 8.04296875 C-6.859401 5.91196181 -6.859401 5.91196181 -5 3 C-3.67405895 2.63837971 -2.34061543 2.30271961 -1 2 C-0.67 1.34 -0.34 0.68 0 0 Z " fill="#9C7DAD" transform="translate(138,173)"/>
<path d="M0 0 C0.33 0.66 0.66 1.32 1 2 C1.99 2 2.98 2 4 2 C5.1875 3.6875 5.1875 3.6875 6 6 C4.75 8.75 4.75 8.75 3 11 C2.34 11 1.68 11 1 11 C0.67 12.65 0.34 14.3 0 16 C-0.33 16 -0.66 16 -1 16 C-1.02685095 13.52076199 -1.04676547 11.0418116 -1.0625 8.5625 C-1.07506836 7.50192383 -1.07506836 7.50192383 -1.08789062 6.41992188 C-1.09653588 4.61306441 -1.05220011 2.80612397 -1 1 C-0.67 0.67 -0.34 0.34 0 0 Z " fill="#6A538E" transform="translate(189,141)"/>
<path d="M0 0 C0.99 0.33 1.98 0.66 3 1 C3 7.27 3 13.54 3 20 C2.34 20.33 1.68 20.66 1 21 C-1.25068815 16.63101712 -0.79341493 13.76048957 0 9 C-0.33 8.01 -0.66 7.02 -1 6 C-0.67 5.34 -0.34 4.68 0 4 C0 2.68 0 1.36 0 0 Z " fill="#9A7FAA" transform="translate(199,108)"/>
<path d="M0 0 C1 3 1 3 -0.328125 5.91796875 C-0.96234375 6.99691406 -1.5965625 8.07585937 -2.25 9.1875 C-2.87390625 10.27417969 -3.4978125 11.36085938 -4.140625 12.48046875 C-4.75421875 13.31191406 -5.3678125 14.14335938 -6 15 C-8.33333333 15 -10.66666667 15 -13 15 C-12 13 -12 13 -9 12 C-7.42083466 9.48103136 -7.42083466 9.48103136 -6 6.5 C-4.5 3.46875 -4.5 3.46875 -3 1 C-2.01 0.67 -1.02 0.34 0 0 Z " fill="#120A15" transform="translate(160,66)"/>
<path d="M0 0 C2.2477975 2.05233685 3.0022242 3.00667261 4 6 C4.66 6 5.32 6 6 6 C6.07427838 9.34252724 6.06546953 11.8035914 5 15 C4.01 15 3.02 15 2 15 C0.2520497 9.75614911 -0.19392201 5.52677733 0 0 Z " fill="#B192BF" transform="translate(37,130)"/>
<path d="M0 0 C0.99 0.66 1.98 1.32 3 2 C3 2.99 3 3.98 3 5 C2.01 5.66 1.02 6.32 0 7 C-0.72965366 9.56282742 -0.72965366 9.56282742 -1 12 C-1.99 10.68 -2.98 9.36 -4 8 C-5.98 8.99 -5.98 8.99 -8 10 C-7.75 7.625 -7.75 7.625 -7 5 C-5.125 3.625 -5.125 3.625 -3 3 C-2.01 3.33 -1.02 3.66 0 4 C0 2.68 0 1.36 0 0 Z " fill="#9879AB" transform="translate(44,108)"/>
<path d="M0 0 C2.4375 0.6875 2.4375 0.6875 5 2 C5.75 4.4375 5.75 4.4375 6 7 C6.33 7.99 6.66 8.98 7 10 C7.66 10 8.32 10 9 10 C9.33 11.98 9.66 13.96 10 16 C8.125 15.875 8.125 15.875 6 15 C5 12.5 5 12.5 4 9 C2.72772152 5.97217447 1.36698125 2.98612409 0 0 Z " fill="#9779B2" transform="translate(155,44)"/>
<path d="M0 0 C0.66 0.33 1.32 0.66 2 1 C2.40729228 3.32156597 2.74438677 5.6568787 3 8 C2.01 8.66 1.02 9.32 0 10 C-0.33 9.01 -0.66 8.02 -1 7 C-1.99 7.33 -2.98 7.66 -4 8 C-4.125 3.25 -4.125 3.25 -3 1 C-2.01 0.67 -1.02 0.34 0 0 Z " fill="#A687B9" transform="translate(40,115)"/>
<path d="M0 0 C1.485 0.99 1.485 0.99 3 2 C4.32 1.34 5.64 0.68 7 0 C7.99 1.98 8.98 3.96 10 6 C9.01 6 8.02 6 7 6 C6.67 6.66 6.34 7.32 6 8 C3.5625 6.8125 3.5625 6.8125 1 5 C0.1875 2.3125 0.1875 2.3125 0 0 Z " fill="#90789B" transform="translate(95,170)"/>
<path d="M0 0 C1.65 0 3.3 0 5 0 C5 1.65 5 3.3 5 5 C6.65 5 8.3 5 10 5 C10 5.33 10 5.66 10 6 C8.02 6 6.04 6 4 6 C4 6.66 4 7.32 4 8 C3.34 8 2.68 8 2 8 C2 7.01 2 6.02 2 5 C1.01 4.67 0.02 4.34 -1 4 C-0.67 2.68 -0.34 1.36 0 0 Z " fill="#7E6889" transform="translate(150,132)"/>
<path d="M0 0 C1.32 0 2.64 0 4 0 C2.55575365 3.23861303 0.74227753 5.61969163 -1.625 8.25 C-2.25664062 8.95640625 -2.88828125 9.6628125 -3.5390625 10.390625 C-4.02117187 10.92171875 -4.50328125 11.4528125 -5 12 C-5 8.83317502 -4.48781492 7.62418394 -3.0625 4.875 C-2.70285156 4.17117187 -2.34320313 3.46734375 -1.97265625 2.7421875 C-1 1 -1 1 0 0 Z " fill="#543680" transform="translate(183,167)"/>
<path d="M0 0 C0.66 0.33 1.32 0.66 2 1 C2.40729228 3.32156597 2.74438677 5.6568787 3 8 C2.67 7.34 2.34 6.68 2 6 C1.0409375 6.2784375 1.0409375 6.2784375 0.0625 6.5625 C-0.618125 6.706875 -1.29875 6.85125 -2 7 C-2.33 6.67 -2.66 6.34 -3 6 C-3.66 6.99 -4.32 7.98 -5 9 C-5.33 7.68 -5.66 6.36 -6 5 C-5.38125 4.731875 -4.7625 4.46375 -4.125 4.1875 C-1.7004767 3.04443152 -1.7004767 3.04443152 0 0 Z " fill="#796383" transform="translate(98,160)"/>
<path d="M0 0 C1.98 1.65 3.96 3.3 6 5 C5.01 5.99 4.02 6.98 3 8 C1.0625 7.3125 1.0625 7.3125 -1 6 C-1.75 3.375 -1.75 3.375 -2 1 C-1.34 0.67 -0.68 0.34 0 0 Z " fill="#927B9F" transform="translate(56,160)"/>
<path d="M0 0 C0.66 0 1.32 0 2 0 C2 7.26 2 14.52 2 22 C1.67 22 1.34 22 1 22 C0.67 16.39 0.34 10.78 0 5 C-0.99 5.495 -0.99 5.495 -2 6 C-1.34 4.02 -0.68 2.04 0 0 Z " fill="#341D44" transform="translate(159,115)"/>
<path d="M0 0 C0.99 0 1.98 0 3 0 C3.27036084 5.27203646 2.26305335 9.92523206 1 15 C0.67 15 0.34 15 0 15 C0 10.05 0 5.1 0 0 Z " fill="#6E4085" transform="translate(138,149)"/>
<path d="M0 0 C3.3 0 6.6 0 10 0 C9.34 1.98 8.68 3.96 8 6 C7.34 5.01 6.68 4.02 6 3 C5.01 3.66 4.02 4.32 3 5 C2.87625 4.360625 2.7525 3.72125 2.625 3.0625 C2.315625 2.0415625 2.315625 2.0415625 2 1 C1.34 0.67 0.68 0.34 0 0 Z " fill="#786097" transform="translate(173,167)"/>
<path d="M0 0 C0.33 0.66 0.66 1.32 1 2 C1.99 2 2.98 2 4 2 C3.43628586 5.26954202 2.50037734 6.82575883 0 9 C-1 8 -1 8 -1.125 4.5 C-1 1 -1 1 0 0 Z " fill="#725A8B" transform="translate(189,141)"/>
<path d="M0 0 C0.66 0 1.32 0 2 0 C2.33 2.97 2.66 5.94 3 9 C1.35 8.67 -0.3 8.34 -2 8 C-2 5 -2 5 0 3 C0 2.01 0 1.02 0 0 Z " fill="#9E7FB0" transform="translate(41,103)"/>
<path d="M0 0 C0.99 0 1.98 0 3 0 C2.67 2.97 2.34 5.94 2 9 C1.34 9 0.68 9 0 9 C-1.125 2.25 -1.125 2.25 0 0 Z " fill="#9174A8" transform="translate(199,128)"/>
<path d="M0 0 C6.6 0.6 6.6 0.6 9 3 C6.92446352 3.5534764 5.15634036 4 3 4 C2.01 4.33 1.02 4.66 0 5 C-0.5625 3.0625 -0.5625 3.0625 -1 1 C-0.67 0.67 -0.34 0.34 0 0 Z " fill="#987CA5" transform="translate(73,177)"/>
<path d="M0 0 C0.99 0 1.98 0 3 0 C4.09658936 3.28976808 3.79953138 4.71303767 3 8 C1.68 7.67 0.36 7.34 -1 7 C-0.67 4.69 -0.34 2.38 0 0 Z " fill="#9278A1" transform="translate(196,115)"/>
<path d="M0 0 C0.93423645 3.01031744 1.04449911 3.86650268 0 7 C-2.97 6.505 -2.97 6.505 -6 6 C-6 5.01 -6 4.02 -6 3 C-5.01 3.33 -4.02 3.66 -3 4 C-2.01 2.68 -1.02 1.36 0 0 Z " fill="#9B7EAE" transform="translate(144,176)"/>
<path d="M0 0 C0.99 0 1.98 0 3 0 C3.66 1.32 4.32 2.64 5 4 C4.34 4.66 3.68 5.32 3 6 C0.875 5.625 0.875 5.625 -1 5 C-0.67 3.35 -0.34 1.7 0 0 Z " fill="#9379B3" transform="translate(171,176)"/>
<path d="M0 0 C6.27 0 12.54 0 19 0 C19 0.33 19 0.66 19 1 C14.05 1 9.1 1 4 1 C3.67 1.99 3.34 2.98 3 4 C2.01 2.68 1.02 1.36 0 0 Z " fill="#59475F" transform="translate(91,100)"/>
<path d="M0 0 C1.65 0 3.3 0 5 0 C4.67 1.65 4.34 3.3 4 5 C2.35 5 0.7 5 -1 5 C-0.67 3.35 -0.34 1.7 0 0 Z " fill="#9A81A7" transform="translate(66,175)"/>
<path d="M0 0 C0.99 0.99 1.98 1.98 3 3 C1.625 5.5 1.625 5.5 0 8 C-0.66 8 -1.32 8 -2 8 C-1.125 1.125 -1.125 1.125 0 0 Z " fill="#826C8C" transform="translate(143,144)"/>
<path d="M0 0 C0 1.65 0 3.3 0 5 C-1.32 5 -2.64 5 -4 5 C-4.66 3.68 -5.32 2.36 -6 1 C-3 0 -3 0 0 0 Z " fill="#856D92" transform="translate(151,74)"/>
<path d="M0 0 C0.33 0 0.66 0 1 0 C1 6.27 1 12.54 1 19 C0.01 18.67 -0.98 18.34 -2 18 C-1.67 17.34 -1.34 16.68 -1 16 C-0.7677354 13.28737884 -0.58063765 10.59226874 -0.4375 7.875 C-0.39431641 7.12089844 -0.35113281 6.36679688 -0.30664062 5.58984375 C-0.2005168 3.72678112 -0.09974999 1.86341476 0 0 Z " fill="#3C224F" transform="translate(110,60)"/>
<path d="M0 0 C0.66 0.66 1.32 1.32 2 2 C1.34 2 0.68 2 0 2 C0 1.34 0 0.68 0 0 Z M-4 2 C-2.68 2 -1.36 2 0 2 C0 2.66 0 3.32 0 4 C0.99 4.33 1.98 4.66 3 5 C3 5.66 3 6.32 3 7 C0.11424181 6.60196439 -0.82189513 6.20990931 -2.75 3.9375 C-3.1625 3.298125 -3.575 2.65875 -4 2 Z " fill="#977FA5" transform="translate(99,62)"/>
<path d="M0 0 C1.60031344 3.20062687 0.03173691 5.72271806 -1 9 C-2.32 9 -3.64 9 -5 9 C-3.50163895 5.88801935 -1.80066242 2.9465385 0 0 Z " fill="#553782" transform="translate(200,137)"/>
<path d="M0 0 C2 2 2 2 2.125 5.125 C2.08375 6.07375 2.0425 7.0225 2 8 C1.34 8 0.68 8 0 8 C0 7.34 0 6.68 0 6 C-0.66 6 -1.32 6 -2 6 C-1.34 4.02 -0.68 2.04 0 0 Z " fill="#967AA5" transform="translate(199,99)"/>
<path d="M0 0 C2 2 2 2 2 5 C-0.64 4.67 -3.28 4.34 -6 4 C-4.03617993 2.49440461 -2.21736634 1.10868317 0 0 Z " fill="#9E7CB8" transform="translate(155,180)"/>
<path d="M0 0 C1.98 0 3.96 0 6 0 C6.33 0.99 6.66 1.98 7 3 C5.02 3 3.04 3 1 3 C0.67 2.01 0.34 1.02 0 0 Z " fill="#625069" transform="translate(73,137)"/>
<path d="M0 0 C0.66 0.33 1.32 0.66 2 1 C2.625 4.0625 2.625 4.0625 3 7 C-1.75 6.25 -1.75 6.25 -4 4 C-2.35 4 -0.7 4 1 4 C0.67 2.68 0.34 1.36 0 0 Z " fill="#A586BE" transform="translate(159,53)"/>
<path d="M0 0 C0.99 0.33 1.98 0.66 3 1 C-0.465 3.97 -0.465 3.97 -4 7 C-3.04065919 3.16263678 -2.76390737 2.40339772 0 0 Z " fill="#8A6C9D" transform="translate(56,64)"/>
</svg>
